<?xml version="1.0" standalone="no"?>
<!DOCTYPE svg PUBLIC "-//W3C//DTD SVG 20010904//EN"
 "http://www.w3.org/TR/2001/REC-SVG-20010904/DTD/svg10.dtd">
<svg version="1.0" xmlns="http://www.w3.org/2000/svg"
 width="96.000000pt" height="96.000000pt" viewBox="0 0 96.000000 96.000000"
 preserveAspectRatio="xMidYMid meet">

<g transform="translate(0.000000,96.000000) scale(0.100000,-0.100000)"
fill="#000000" stroke="none">
<path d="M154 886 l-34 -34 0 -373 c1 -396 0 -387 50 -422 22 -15 59 -17 347
-17 316 0 323 0 323 20 0 20 -7 20 -320 20 l-321 0 -24 25 c-31 31 -31 49 0
80 l24 25 321 0 320 0 0 355 0 355 -326 0 -326 0 -34 -34z m656 -321 l0 -314
-312 -3 c-172 -2 -321 -7 -331 -12 -17 -8 -18 6 -15 299 l3 307 24 19 c22 18
43 19 327 19 l304 0 0 -315z"/>
<path d="M268 779 c-27 -15 -26 -124 1 -139 12 -6 102 -10 225 -10 238 0 236
-1 236 85 0 43 -4 56 -19 65 -26 13 -420 13 -443 -1z m422 -69 l0 -40 -200 0
-200 0 0 40 0 40 200 0 200 0 0 -40z"/>
</g>
</svg>
